<?xml version="1.0" encoding="utf-8"?>
<!-- Generator: Adobe Illustrator 24.0.1, SVG Export Plug-In . SVG Version: 6.00 Build 0)  -->
<svg version="1.1" id="图层_1" xmlns="http://www.w3.org/2000/svg" xmlns:xlink="http://www.w3.org/1999/xlink" x="0px" y="0px"
	 viewBox="0 0 1024 1024" style="enable-background:new 0 0 1024 1024;" xml:space="preserve">
<style type="text/css">
	.st0{fill:none;stroke:#000000;stroke-width:40;stroke-miterlimit:10;}
	.st1{fill:none;stroke:#000000;stroke-width:40;stroke-linecap:round;stroke-linejoin:round;stroke-miterlimit:10;}
	.st2{stroke:#000000;stroke-width:40;stroke-linecap:round;stroke-linejoin:round;stroke-miterlimit:10;}
	.st3{fill:none;}
	.st4{fill:none;stroke:#070102;stroke-width:40;stroke-linecap:round;stroke-linejoin:round;stroke-miterlimit:10;}
	.st5{fill:none;stroke:#000000;stroke-width:40;stroke-linecap:round;stroke-miterlimit:10;}
	.st6{fill:#CCCCCC;}
</style>
<g>
	<path d="M959.5,860.74h-900c-11.05,0-20,8.95-20,20s8.95,20,20,20h900c11.05,0,20-8.95,20-20S970.55,860.74,959.5,860.74z"/>
	<path d="M109.5,790.89h800c27.61,0,50-22.39,50-50v-544.9c0-27.61-22.39-50-50-50h-800c-27.61,0-50,22.39-50,50v544.9
		C59.5,768.5,81.89,790.89,109.5,790.89z M519.01,281.64c90.45,0,141.58,65.54,141.58,167.14c0,13.11-1.31,25.56-2.62,34.08H418.07
		c3.93,76.03,50.47,124.53,117.98,124.53c34.74,0,62.92-10.49,89.14-28.18l21.63,39.33c-31.46,20.32-69.48,36.71-117.98,36.71
		c-94.38,0-170.41-68.82-170.41-186.14C358.43,353.74,436.42,281.64,519.01,281.64z"/>
	<path d="M519.66,329.48c-50.47,0-95.04,40.64-102.25,110.77h190.73C608.15,368.16,575.38,329.48,519.66,329.48z"/>
</g>
</svg>
