<?xml version="1.0" encoding="utf-8"?>
<!-- Generator: Adobe Illustrator 24.0.1, SVG Export Plug-In . SVG Version: 6.00 Build 0)  -->
<svg version="1.1" id="图层_1" xmlns="http://www.w3.org/2000/svg" xmlns:xlink="http://www.w3.org/1999/xlink" x="0px" y="0px"
	 viewBox="0 0 1024 1024" style="enable-background:new 0 0 1024 1024;" xml:space="preserve">
<style type="text/css">
	.st0{fill:none;stroke:#000000;stroke-width:40;stroke-miterlimit:10;}
	.st1{fill:none;stroke:#000000;stroke-width:40;stroke-linecap:round;stroke-linejoin:round;stroke-miterlimit:10;}
	.st2{stroke:#000000;stroke-width:40;stroke-linecap:round;stroke-linejoin:round;stroke-miterlimit:10;}
	.st3{fill:none;}
	.st4{fill:none;stroke:#070102;stroke-width:40;stroke-linecap:round;stroke-linejoin:round;stroke-miterlimit:10;}
	.st5{fill:none;stroke:#000000;stroke-width:40;stroke-linecap:round;stroke-miterlimit:10;}
	.st6{fill:#CCCCCC;}
</style>
<path d="M576.94,65.03c-15.17-14.66-35.15-22.74-56.25-22.74c-21.1,0-41.08,8.08-56.25,22.74L99.09,418.2
	c-24.2,23.4-31.4,57.31-18.78,88.52c12.62,31.21,41.37,50.59,75.03,50.59h26.61V927.5c0,30.21,24.58,54.78,54.78,54.78H464.8V658.73
	c0-5.71,4.65-10.36,10.36-10.36h91.07c5.71,0,10.36,4.65,10.36,10.36v323.55h228.06c30.21,0,54.78-24.58,54.78-54.78V557.31h26.62
	c33.66,0,62.41-19.39,75.03-50.59c12.62-31.21,5.42-65.13-18.78-88.52L576.94,65.03z M923.98,491.73
	c-5,12.37-17.6,25.59-37.94,25.59h-66.62V927.5c0,8.15-6.63,14.78-14.78,14.78H616.58V658.73c0-27.77-22.59-50.36-50.36-50.36
	h-91.07c-27.77,0-50.36,22.59-50.36,50.36v283.55H236.74c-8.15,0-14.78-6.63-14.78-14.78V517.31h-66.61
	c-20.35,0-32.94-13.22-37.95-25.59c-5-12.37-5.13-30.63,9.5-44.77L492.24,93.79c15.95-15.42,40.94-15.42,56.89,0l365.35,353.17
	C929.11,461.1,928.98,479.36,923.98,491.73z"/>
</svg>
