<?xml version="1.0" encoding="utf-8"?>
<!-- Generator: Adobe Illustrator 24.0.1, SVG Export Plug-In . SVG Version: 6.00 Build 0)  -->
<svg version="1.1" id="图层_1" xmlns="http://www.w3.org/2000/svg" xmlns:xlink="http://www.w3.org/1999/xlink" x="0px" y="0px"
	 viewBox="0 0 1024 1024" style="enable-background:new 0 0 1024 1024;" xml:space="preserve">
<style type="text/css">
	.st0{fill:none;stroke:#000000;stroke-width:40;stroke-miterlimit:10;}
	.st1{fill:none;stroke:#000000;stroke-width:40;stroke-linecap:round;stroke-linejoin:round;stroke-miterlimit:10;}
	.st2{stroke:#000000;stroke-width:40;stroke-linecap:round;stroke-linejoin:round;stroke-miterlimit:10;}
	.st3{fill:none;}
	.st4{fill:none;stroke:#070102;stroke-width:40;stroke-linecap:round;stroke-linejoin:round;stroke-miterlimit:10;}
	.st5{fill:none;stroke:#000000;stroke-width:40;stroke-linecap:round;stroke-miterlimit:10;}
	.st6{fill:#CCCCCC;}
</style>
<path d="M897.43,802.25c-20.63-48.76-50.15-92.55-87.75-130.15c-37.6-37.6-81.39-67.12-130.15-87.75
	c-17.63-7.46-35.65-13.63-53.98-18.5c32.26-13.52,61.89-33.32,87.37-58.8c51.49-51.49,79.85-119.96,79.85-192.78
	s-28.36-141.29-79.85-192.78C661.43,70,592.97,41.64,520.15,41.64S378.86,70,327.37,121.49c-51.49,51.49-79.85,119.96-79.85,192.78
	s28.36,141.29,79.85,192.78c25.48,25.48,55.11,45.28,87.37,58.8c-18.33,4.88-36.35,11.05-53.98,18.5
	c-48.76,20.63-92.55,50.15-130.15,87.75c-37.6,37.6-67.12,81.39-87.75,130.15c-21.36,50.49-32.19,104.12-32.19,159.39
	c0,11.05,8.95,20,20,20s20-8.95,20-20c0-203.73,165.75-369.47,369.47-369.47s369.47,165.75,369.47,369.47c0,11.05,8.95,20,20,20
	s20-8.95,20-20C929.62,906.37,918.79,852.74,897.43,802.25z M287.52,314.27c0-128.27,104.36-232.63,232.63-232.63
	S752.78,186,752.78,314.27S648.42,546.9,520.15,546.9S287.52,442.55,287.52,314.27z"/>
</svg>
