<?xml version="1.0" encoding="utf-8"?>
<!-- Generator: Adobe Illustrator 24.0.1, SVG Export Plug-In . SVG Version: 6.00 Build 0)  -->
<svg version="1.1" id="图层_1" xmlns="http://www.w3.org/2000/svg" xmlns:xlink="http://www.w3.org/1999/xlink" x="0px" y="0px"
	 viewBox="0 0 1024 1024" style="enable-background:new 0 0 1024 1024;" xml:space="preserve">
<style type="text/css">
	.st0{fill:none;stroke:#000000;stroke-width:40;stroke-miterlimit:10;}
	.st1{fill:none;stroke:#000000;stroke-width:40;stroke-linecap:round;stroke-linejoin:round;stroke-miterlimit:10;}
	.st2{stroke:#000000;stroke-width:40;stroke-linecap:round;stroke-linejoin:round;stroke-miterlimit:10;}
	.st3{fill:none;}
	.st4{fill:none;stroke:#070102;stroke-width:40;stroke-linecap:round;stroke-linejoin:round;stroke-miterlimit:10;}
	.st5{fill:none;stroke:#000000;stroke-width:40;stroke-linecap:round;stroke-miterlimit:10;}
	.st6{fill:#CCCCCC;}
</style>
<path d="M886.27,801.14c-20.63-48.76-50.15-92.55-87.75-130.15c-37.6-37.6-81.39-67.12-130.15-87.75
	c-17.63-7.46-35.65-13.63-53.98-18.5c32.26-13.52,61.89-33.32,87.37-58.8c51.49-51.49,79.85-119.96,79.85-192.78
	s-28.36-141.29-79.85-192.78c-51.49-51.49-119.96-79.85-192.78-79.85S367.7,68.89,316.21,120.38
	c-51.49,51.49-79.85,119.96-79.85,192.78s28.36,141.29,79.85,192.78c25.48,25.48,55.11,45.28,87.37,58.8
	c-18.33,4.88-36.35,11.05-53.98,18.5c-48.76,20.63-92.55,50.15-130.15,87.75c-37.6,37.6-67.12,81.39-87.75,130.15
	c-21.36,50.49-32.19,104.12-32.19,159.39c0,11.05,8.95,20,20,20h778.95c11.05,0,20-8.95,20-20
	C918.46,905.26,907.63,851.63,886.27,801.14z"/>
</svg>
