<?xml version="1.0" encoding="utf-8"?>
<!-- Generator: Adobe Illustrator 24.0.1, SVG Export Plug-In . SVG Version: 6.00 Build 0)  -->
<svg version="1.1" id="图层_1" xmlns="http://www.w3.org/2000/svg" xmlns:xlink="http://www.w3.org/1999/xlink" x="0px" y="0px"
	 viewBox="0 0 1024 1024" style="enable-background:new 0 0 1024 1024;" xml:space="preserve">
<style type="text/css">
	.st0{fill:none;stroke:#000000;stroke-width:40;stroke-miterlimit:10;}
	.st1{fill:none;stroke:#000000;stroke-width:40;stroke-linecap:round;stroke-linejoin:round;stroke-miterlimit:10;}
	.st2{stroke:#000000;stroke-width:40;stroke-linecap:round;stroke-linejoin:round;stroke-miterlimit:10;}
	.st3{fill:none;}
	.st4{fill:none;stroke:#070102;stroke-width:40;stroke-linecap:round;stroke-linejoin:round;stroke-miterlimit:10;}
	.st5{fill:none;stroke:#000000;stroke-width:40;stroke-linecap:round;stroke-miterlimit:10;}
	.st6{fill:#CCCCCC;}
</style>
<g>
	<path d="M914.96,167.63H264.56l-13.8-72.46c-5.84-30.64-32.71-52.88-63.91-52.88H81.27c-11.05,0-20,8.95-20,20s8.95,20,20,20
		h105.58c12.01,0,22.37,8.57,24.61,20.37l111.39,584.82c5.84,30.64,32.71,52.88,63.91,52.88h558.11c11.05,0,20-8.95,20-20
		s-8.95-20-20-20H386.77c-12.01,0-22.37-8.57-24.61-20.37l-14.42-75.7l535.99-53.1c25.03-2.48,44.82-21.63,48.12-46.56l36.55-276.02
		c2.04-15.39-2.66-30.92-12.9-42.6C945.26,174.33,930.48,167.63,914.96,167.63z M928.73,223.36l-36.55,276.02
		c-0.85,6.43-5.95,11.37-12.41,12.01l-539.56,53.45l-68.04-357.2h642.77c5.48,0,8.9,2.97,10.45,4.74S929.45,217.92,928.73,223.36z"
		/>
	<path d="M450.55,806.83c-48.37,0-87.73,39.36-87.73,87.73s39.36,87.73,87.73,87.73s87.73-39.36,87.73-87.73
		S498.92,806.83,450.55,806.83z M450.55,942.29c-26.32,0-47.73-21.41-47.73-47.73c0-26.32,21.41-47.73,47.73-47.73
		c26.32,0,47.73,21.41,47.73,47.73C498.28,920.88,476.86,942.29,450.55,942.29z"/>
	<path d="M866.68,806.83c-48.38,0-87.73,39.36-87.73,87.73s39.36,87.73,87.73,87.73c48.37,0,87.73-39.36,87.73-87.73
		S915.05,806.83,866.68,806.83z M866.68,942.29c-26.32,0-47.73-21.41-47.73-47.73c0-26.32,21.41-47.73,47.73-47.73
		c26.32,0,47.73,21.41,47.73,47.73C914.41,920.88,893,942.29,866.68,942.29z"/>
</g>
</svg>
