<?xml version="1.0" encoding="utf-8"?>
<!-- Generator: Adobe Illustrator 24.0.1, SVG Export Plug-In . SVG Version: 6.00 Build 0)  -->
<svg version="1.1" id="图层_1" xmlns="http://www.w3.org/2000/svg" xmlns:xlink="http://www.w3.org/1999/xlink" x="0px" y="0px"
	 viewBox="0 0 1024 1024" style="enable-background:new 0 0 1024 1024;" xml:space="preserve">
<style type="text/css">
	.st0{fill:none;stroke:#000000;stroke-width:40;stroke-miterlimit:10;}
	.st1{fill:none;stroke:#000000;stroke-width:40;stroke-linecap:round;stroke-linejoin:round;stroke-miterlimit:10;}
	.st2{stroke:#000000;stroke-width:40;stroke-linecap:round;stroke-linejoin:round;stroke-miterlimit:10;}
	.st3{fill:none;}
	.st4{fill:none;stroke:#070102;stroke-width:40;stroke-linecap:round;stroke-linejoin:round;stroke-miterlimit:10;}
	.st5{fill:none;stroke:#000000;stroke-width:40;stroke-linecap:round;stroke-miterlimit:10;}
	.st6{fill:#CCCCCC;}
</style>
<g>
	<path d="M926.62,503.81l36.55-276.02c2.04-15.39-2.66-30.92-12.9-42.6c-10.23-11.68-25.01-18.38-40.54-18.38H259.34l-13.8-72.46
		c-5.84-30.64-32.71-52.88-63.91-52.88H76.05c-11.05,0-20,8.95-20,20s8.95,20,20,20h105.58c12.01,0,22.37,8.57,24.61,20.37
		l111.39,584.82c5.84,30.64,32.71,52.88,63.91,52.88h558.11c11.05,0,20-8.95,20-20s-8.95-20-20-20H381.55
		c-12.01,0-22.37-8.57-24.61-20.37l-14.42-75.7l535.99-53.1C903.53,547.89,923.32,528.75,926.62,503.81z"/>
	<ellipse transform="matrix(0.9732 -0.2298 0.2298 0.9732 -193.4273 126.223)" cx="445.32" cy="893.75" rx="87.73" ry="87.73"/>
	<circle cx="861.46" cy="893.75" r="87.73"/>
</g>
</svg>
